<svg width="80" height="59" viewBox="0 0 80 59" fill="none" xmlns="http://www.w3.org/2000/svg">
<path d="M66.4755 1.01074H13.2584V58.1274H66.4755V1.01074Z" fill="url(#paint0_linear_20863_2)"/>
<path d="M13.0382 1.01072C13.1024 1.01072 13.1666 1.03825 13.2584 1.06578C13.2584 20.068 13.2584 39.0701 13.2584 58.0998C9.13862 58.421 5.66116 57.3841 2.89937 54.7233C0.945022 52.8332 -4.09453e-05 50.6127 -4.09453e-05 48.0987C-4.09453e-05 39.1986 -4.09453e-05 30.3077 -4.09453e-05 21.4076C-4.09453e-05 18.0127 -0.00921631 14.6178 -0.00921631 11.2229C-0.00921631 7.12152 2.20205 4.13952 6.26673 2.12094C8.35871 1.0933 10.6801 0.937321 13.0382 1.01072Z" fill="url(#paint1_linear_20863_2)"/>
<path d="M80 11.0761C80 7.29581 77.9355 4.47898 74.2654 2.43287C72.0082 1.17584 69.4483 0.937284 66.8241 0.992337C66.4204 1.00151 66.4755 1.21255 66.4755 1.43275C66.4755 8.03902 66.4755 14.6361 66.4755 21.2424C66.4755 32.8492 66.4755 44.4469 66.4663 56.0537C66.4663 56.7235 66.4663 57.3933 66.4663 58.1182C68.1179 58.1732 69.6869 58.1824 71.2283 57.8154C76.4399 56.5859 79.9908 52.7047 79.9908 48.1262C80.0092 35.7853 80 23.4261 80 11.0761Z" fill="url(#paint2_linear_20863_2)"/>
<path d="M44.2161 33.7852C44.2161 34.9688 44.2161 36.0882 44.2161 37.2168C44.2161 38.4921 44.2161 39.7675 44.2161 41.0337C44.2161 41.7953 43.8307 42.199 43.0784 42.199C41.0047 42.2082 38.9311 42.2082 36.8575 42.199C36.1693 42.199 35.7839 41.7677 35.7839 41.0429C35.7839 38.7674 35.7839 36.4919 35.7839 34.2164C35.7839 34.088 35.7839 33.9503 35.7839 33.7852C35.6096 33.7852 35.4812 33.7852 35.3435 33.7852C33.1047 33.7852 30.8568 33.7852 28.618 33.7852C27.728 33.7852 27.361 33.4273 27.361 32.5373C27.361 30.5646 27.361 28.5919 27.361 26.6192C27.361 25.72 27.7188 25.3622 28.6088 25.3622C30.8384 25.3622 33.068 25.3622 35.2977 25.3622C35.4445 25.3622 35.5821 25.3622 35.7748 25.3622C35.7748 25.2154 35.7748 25.0961 35.7748 24.9768C35.7748 22.7013 35.7748 20.4258 35.7748 18.1504C35.7748 17.3062 36.151 16.9392 36.9951 16.9392C38.9678 16.9392 40.9405 16.9392 42.9132 16.9392C43.8399 16.9392 44.1978 17.2879 44.1978 18.2329C44.2069 20.4901 44.1978 22.738 44.1978 24.9952C44.1978 25.1053 44.1978 25.2154 44.1978 25.3714C44.3446 25.3714 44.473 25.3714 44.5923 25.3714C46.8678 25.3714 49.1433 25.3714 51.4188 25.3805C52.2537 25.3805 52.6116 25.7476 52.6116 26.5825C52.6116 28.5644 52.6116 30.5463 52.6116 32.5282C52.6116 33.4365 52.2629 33.7852 51.3729 33.7852C49.1066 33.7852 46.8403 33.7852 44.5831 33.7944C44.4914 33.7852 44.3813 33.7852 44.2161 33.7852Z" fill="url(#paint3_linear_20863_2)"/>
<defs>
<linearGradient id="paint0_linear_20863_2" x1="13.2598" y1="29.5656" x2="66.473" y2="29.5656" gradientUnits="userSpaceOnUse">
<stop stop-color="#B0F4FF"/>
<stop offset="1" stop-color="#69DCFC"/>
</linearGradient>
<linearGradient id="paint1_linear_20863_2" x1="-4.09446e-05" y1="29.5746" x2="13.2597" y2="29.5746" gradientUnits="userSpaceOnUse">
<stop stop-color="#6CBCFC"/>
<stop offset="1" stop-color="#458DFC"/>
</linearGradient>
<linearGradient id="paint2_linear_20863_2" x1="66.4686" y1="29.5689" x2="80.0007" y2="29.5689" gradientUnits="userSpaceOnUse">
<stop stop-color="#6CBCFC"/>
<stop offset="1" stop-color="#458DFC"/>
</linearGradient>
<linearGradient id="paint3_linear_20863_2" x1="27.3666" y1="29.5783" x2="52.6299" y2="29.5783" gradientUnits="userSpaceOnUse">
<stop stop-color="#6CBCFC"/>
<stop offset="1" stop-color="#458DFC"/>
</linearGradient>
</defs>
</svg>
